<?xml version="1.0" encoding="utf-8"?>
<!-- Generator: Adobe Illustrator 25.0.0, SVG Export Plug-In . SVG Version: 6.00 Build 0)  -->
<svg version="1.1" id="Calque_1" xmlns="http://www.w3.org/2000/svg" xmlns:xlink="http://www.w3.org/1999/xlink" x="0px" y="0px"
	 viewBox="0 0 1920 1080" style="enable-background:new 0 0 1920 1080;" xml:space="preserve">
<style type="text/css">
	.st0{fill:#595656;}
	.st1{fill:#CECECE;}
	.st2{fill:#FFDC0D;}
</style>
<g>
	<rect x="55" y="328" transform="matrix(0.5817 -0.8134 0.8134 0.5817 -249.71 200.401)" class="st0" width="30" height="30"/>
</g>
<g>
	<rect x="-9" y="616" transform="matrix(0.5817 -0.8134 0.8134 0.5817 -510.7317 268.8048)" class="st1" width="30" height="30"/>
</g>
<g>
	<rect x="151" y="472" transform="matrix(0.6403 -0.7681 0.7681 0.6403 -316.0002 307.1937)" class="st2" width="38" height="38"/>
</g>
<g>
	
		<rect x="134.3" y="662" transform="matrix(0.5817 -0.8134 0.8134 0.5817 -488.1858 404.5637)" class="st0" width="30" height="30"/>
</g>
<g>
	<rect x="38.3" y="810" transform="matrix(0.5817 -0.8134 0.8134 0.5817 -648.719 388.3825)" class="st1" width="30" height="30"/>
</g>
<g>
	<rect x="251.3" y="803" transform="matrix(0.6403 -0.7681 0.7681 0.6403 -534.148 503.2625)" class="st2" width="38" height="38"/>
</g>
<g>
	
		<rect x="137.3" y="962.5" transform="matrix(0.5817 -0.8134 0.8134 0.5817 -731.351 532.6921)" class="st0" width="30" height="30"/>
</g>
<g>
	
		<rect x="282.3" y="1045.5" transform="matrix(0.5817 -0.8134 0.8134 0.5817 -738.213 685.3478)" class="st1" width="30" height="30"/>
</g>
<g>
	
		<rect x="620.3" y="1008.5" transform="matrix(0.6403 -0.7681 0.7681 0.6403 -559.2684 860.6188)" class="st2" width="38" height="38"/>
</g>
<g>
	
		<rect x="34.1" y="1013.6" transform="matrix(0.6403 -0.7681 0.7681 0.6403 -774.0811 412.2282)" class="st2" width="38" height="38"/>
</g>
<g>
	
		<rect x="352.1" y="662.1" transform="matrix(0.5817 -0.8134 0.8134 0.5817 -397.2095 581.8141)" class="st0" width="30" height="30"/>
</g>
<g>
	
		<rect x="494.1" y="834.1" transform="matrix(0.5817 -0.8134 0.8134 0.5817 -477.717 769.2552)" class="st1" width="30" height="30"/>
</g>
<g>
	
		<rect x="423.2" y="954" transform="matrix(0.5817 -0.8134 0.8134 0.5817 -604.8486 761.6951)" class="st0" width="30" height="30"/>
</g>
<g>
</g>
<g>
</g>
<g>
</g>
<g>
</g>
<g>
</g>
<g>
</g>
<g>
</g>
<g>
</g>
<g>
</g>
<g>
</g>
<g>
</g>
<g>
</g>
<g>
</g>
<g>
</g>
<g>
</g>
</svg>
