<svg xmlns="http://www.w3.org/2000/svg" xmlns:xlink="http://www.w3.org/1999/xlink" viewBox="0 0 207.79 231.05"><defs><style>.cls-1{fill:url(#Dégradé_sans_nom_25);}</style><radialGradient id="Dégradé_sans_nom_25" cx="99.54" cy="115.53" r="107.83" gradientUnits="userSpaceOnUse"><stop offset="0" stop-color="#ffda00"/><stop offset="0.52" stop-color="#f4991a"/></radialGradient></defs><g id="Calque_2" data-name="Calque 2"><g id="Calque_1-2" data-name="Calque 1"><path class="cls-1" d="M196.07,204.69c-7.15-7.36-30.4-4-34.2,5.52,2.83-.43,10.3-.67,12.64-2.9a8.81,8.81,0,0,1,1.92-3.16c12.93,2.15,11.93,18.64,1.77,23.83-29-4.66-30.52-39.7-30.91-63,16.1.25,40.83-5.38,43.24-24-.05.49-12.28.73-12.52,2.87-1.93,15.3-17.12,21.62-30.85,16.83-.34-16.45,1.49-32.73,1.48-49.15,1.36-40.58-34-55.29-66.08-33.16C68.29,70.93,48.91,74.83,35.1,65.64,10.32,50,14.55,11.86,43.07,3.35,64.61.11,87.89,20.53,88.15,41.79c0,.06,12.46-1.18,12.39-2.84C99.73,13.31,71.85-5,47.17,1.21.12,6.74-10.76,59.35,35.89,74.1c13.64,2.44,28.57,1.82,40.26,10.39-9.37,11-12.9,25.67-15.82,39.58L28.14,109.9c-3.62-1-9.27,2.36-12.52,2.87,14.46,6.37,28.87,12.9,43.31,19.39a242.3,242.3,0,0,0-2.7,34.71c-18.91-2.22-36.5-14.14-43.65-31.08-.52-1.21-12.76,2.43-12.58,2.89,8.48,21.44,32.7,32.94,56.23,30.91C55,187.14,64.91,210.82,47.5,223c-7.66-1.66-14-12.1-7-18.09.61-.51-4.22.22-4.59.29-9.93-.11-14.57,9.65-7.53,17,9,8.74,28.57,2.17,36.14-5.9,10.82-14.11,3.64-32.87,4.7-49,11.65-3,22.45-8.24,30.34-17.19,11.28,4.6,22.83,10.33,34.61,13.13.67,25.95,1.5,68.67,37.31,67.85C184.6,231.09,207.25,219.78,196.07,204.69ZM82.91,89.73c14.68,13.41,19.29,32.9,12.49,49.77L71.72,129.08C73.66,116.16,76.2,101.61,82.91,89.73Zm2.94,64.36c-4.27,4.42-10.34,9.39-16.67,11.69a227.11,227.11,0,0,1,1.41-28.39q10.53,4.7,21.11,9.3A46.8,46.8,0,0,1,85.85,154.09Zm26.69-7-8-3.54c14.34-20.64,4.89-49.27-15.92-61.91,12.67-18,33.93-9.28,42.26,7.87,10.26,21,2.32,45,3.29,67.06C126.77,153.66,119.6,150.15,112.54,147.05Z"/><ellipse cx="168.57" cy="59.29" rx="15" ry="22.5"/><circle cx="195.54" cy="31.64" r="12.25"/><circle cx="168.57" cy="14.29" r="12.25"/><circle cx="139.7" cy="31.64" r="12.25"/></g></g></svg>